<?xml version="1.0" encoding="UTF-8"?>
<svg id="Layer_1" xmlns="http://www.w3.org/2000/svg" version="1.1" viewBox="0 0 841.9 214.2">
  <!-- Generator: Adobe Illustrator 30.1.0, SVG Export Plug-In . SVG Version: 2.1.1 Build 136)  -->
  <path d="M26.4,23.6h21.9c22.5,0,24,14.7,24,23.9s-3.5,16.5-11,18.9l14.6,27.3h-21.6l-10-27.8v27.8h-18V23.6ZM47.8,55.9c4.6,0,6.4-2.1,6.4-7.7s-2-7.9-6.4-7.9h-3.4v15.5h3.4Z"/>
  <path d="M80.5,23.6h40.4v16.9h-22.5v10h20.2v15.2h-20.2v11.2h22.5v16.9h-40.4V23.6Z"/>
  <path d="M142.1,23.6h20.6l18.3,70.1h-18.7l-2.6-11.5h-15l-3,11.5h-18.7l19.2-70.1ZM156.7,66.8l-4.6-24.5-4.6,24.5h9.2Z"/>
  <path d="M185.3,23.6h18.1l-.2,53.7h16.9v16.4h-34.7V23.6Z"/>
  <path d="M248.1,23.6h18v70.1h-18V23.6Z"/>
  <path d="M276.3,23.6h20.3l14.2,35.9V23.6h18.1v70.1h-19.7l-14.7-35.3v35.3h-18.2V23.6Z"/>
  <path d="M337.2,58.7c0-16.5,3.5-36.1,26.3-36.1s25.2,10.5,25.9,24.4h-18.1c-.6-5.8-3.4-8-7.8-8-7.3,0-8.1,9.3-8.1,19.7s1.2,19.8,8.1,19.8,7.2-2.7,7.5-11h-8.8v-15.1h27.1v41.3h-11.7l-2-7.9c-2.2,5.7-9.3,9-14.1,9-20.2,0-24.2-19.6-24.2-36.1Z"/>
  <path d="M398.8,23.6h21.9c22.5,0,24,14.7,24,23.9s-3.5,16.5-11,18.9l14.6,27.3h-21.6l-10-27.8v27.8h-18V23.6ZM420.1,55.9c4.6,0,6.4-2.1,6.4-7.7s-2-7.9-6.4-7.9h-3.4v15.5h3.4Z"/>
  <path d="M452.8,23.6h40.4v16.9h-22.5v10h20.2v15.2h-20.2v11.2h22.5v16.9h-40.4V23.6Z"/>
  <path d="M501.4,23.6h22.9c18.7,0,26.4,14.8,26.4,35.1s-8.2,35.1-27.3,35.1h-22V23.6ZM521.2,77.2c6.5,0,11.5-1.5,11.5-18.6s-4.6-18.4-11.2-18.4h-2.1v37h1.8Z"/>
  <path d="M558.9,23.6h18v70.1h-18V23.6Z"/>
  <path d="M586.9,23.6h40.4v16.9h-22.5v10h20.2v15.2h-20.2v11.2h22.5v16.9h-40.4V23.6Z"/>
  <path d="M635.7,23.6h20.3l14.2,35.9V23.6h18.1v70.1h-19.7l-14.7-35.3v35.3h-18.2V23.6Z"/>
  <path d="M707.4,40.6h-12.7v-17h43.3v17h-12.7v53.1h-17.9v-53.1Z"/>
  <path d="M741.1,70.2h18.4c0,6.5,2,9.4,6.6,9.4s6.1-2.6,6.1-6.5c0-11.5-30.2-3.9-30.2-30.1s4.6-20.5,23.4-20.5,23.6,9.7,23.9,23.3h-17.6c0-6.4-2.3-8.1-6.1-8.1s-5.7,1.8-5.7,5.8c0,10.7,30,5.3,30,28.3s-4.6,23-23.2,23-25.5-8.1-25.5-24.6Z"/>
  <path d="M794.2,84.6c0-6.7,3.7-10.1,10.7-10.1s10.5,3.5,10.5,10.1-3.5,10.2-10.5,10.2-10.7-3.6-10.7-10.2Z"/>
  <path d="M188.9,116.9h21.9c22.5,0,24,14.7,24,23.9s-3.5,16.5-11,18.9l14.6,27.3h-21.6l-10-27.8v27.8h-18v-70.1ZM210.3,149.2c4.6,0,6.4-2.1,6.4-7.7s-2-7.9-6.4-7.9h-3.4v15.5h3.4Z"/>
  <path d="M243,116.9h40.4v16.9h-22.5v10h20.2v15.2h-20.2v11.2h22.5v16.9h-40.4v-70.1Z"/>
  <path d="M304.6,116.9h20.6l18.3,70.1h-18.7l-2.6-11.5h-15l-3,11.5h-18.7l19.2-70.1ZM319.2,160.1l-4.6-24.5-4.6,24.5h9.2Z"/>
  <path d="M347.7,116.9h18.1l-.2,53.7h16.9v16.4h-34.7v-70.1Z"/>
  <path d="M410.5,116.9h40v16.9h-22v12.1h20.2v16.1h-20.2v25.1h-18v-70.1Z"/>
  <path d="M455,152c0-16.6,3.6-36.1,27.1-36.1s27.2,19.5,27.2,36.3-3.7,36-27.2,36-27.1-19.4-27.1-36.1ZM490.9,152.1c0-9.4-.5-19.3-8.9-19.3s-8.9,9.7-8.9,19.2.5,19.3,8.9,19.3,8.9-10,8.9-19.2Z"/>
  <path d="M515.3,152c0-16.6,3.6-36.1,27.1-36.1s27.2,19.5,27.2,36.3-3.7,36-27.2,36-27.1-19.4-27.1-36.1ZM551.2,152.1c0-9.4-.5-19.3-8.9-19.3s-8.9,9.7-8.9,19.2.5,19.3,8.9,19.3,8.9-10,8.9-19.2Z"/>
  <path d="M577.6,116.9h22.9c18.7,0,26.4,14.8,26.4,35.1s-8.2,35.1-27.3,35.1h-22v-70.1ZM597.3,170.5c6.5,0,11.5-1.5,11.5-18.6s-4.6-18.4-11.2-18.4h-2.1v37h1.8Z"/>
  <path d="M631.7,177.9c0-6.7,3.7-10.1,10.7-10.1s10.5,3.5,10.5,10.1-3.5,10.2-10.5,10.2-10.7-3.6-10.7-10.2Z"/>
</svg>