<?xml version="1.0" encoding="UTF-8"?>
<svg id="Layer_1" xmlns="http://www.w3.org/2000/svg" version="1.1" viewBox="0 0 595.3 234">
  <!-- Generator: Adobe Illustrator 29.7.1, SVG Export Plug-In . SVG Version: 2.1.1 Build 8)  -->
  <defs>
    <style>
      .st0 {
        fill: #231f20;
      }
    </style>
  </defs>
  <g>
    <path class="st0" d="M135.3,87.3c0,32.4-22.6,56.2-56.4,56.2s-29.7-1.7-29.7-1.7V41.8s19.7-1.4,31.7-1.4c34.1,0,54.4,16.6,54.4,46.9M107.7,90.6c0-17.6-8.9-25-26.2-25s-5.7.2-5.7.2v51.6s3.8.8,8.2.8c15.7,0,23.7-10.8,23.7-27.6"/>
    <path class="st0" d="M189.3,100.4c-10.7-6.6-18.5.2-18.6,16.1h0c0,12.4.5,21.3.9,24.6-8.7,1.4-16.9,1.8-25,1-.2-2.3-.6-10.9-.6-25.5v-15.8c0-12.2-1.4-20.5-2.4-26.5,6.3-3.2,13.9-4.5,21.3-6.7,1.6,4.2,3.4,9.8,4.6,17,5-11.3,14.8-17.1,25.5-17.1.4,10-1.7,21.2-5.8,33"/>
    <path class="st0" d="M216,130.4c0,7.5-6.1,13.6-13.6,13.6s-13.6-6.1-13.6-13.6,6.1-13.6,13.6-13.6,13.6,6.1,13.6,13.6"/>
    <path class="st0" d="M362.3,37.5l-27.7,103h-26.3l-13.3-60.1-15.9,60.1h-24.4l-25.7-102.9c11.4,0,19.7-.7,28.3-2l11.6,66.5,17.6-64.5h22.2l14.3,64.2,14-64.2h25.4Z"/>
    <path class="st0" d="M393.9,139.9c-8.4,1.3-16.3,1.7-24.1,1-.2-2.3-.5-10.5-.5-24.6v-39.9c7-3.6,15.5-4.9,23.7-7.4v47.4c0,11.9.5,20.5.9,23.6"/>
    <path class="st0" d="M431.8,139.9c-8.4,1.3-16.3,1.7-24.1,1-.2-2.3-.5-10.5-.5-24.6V44.9c7-3.6,15.5-4.9,23.7-7.4v78.9c0,11.9.5,20.5.9,23.6"/>
    <path class="st0" d="M468.2,139.9c-8.4,1.3-16.3,1.7-24.1,1-.2-2.3-.5-10.5-.5-24.6V44.9c7-3.6,15.5-4.9,23.7-7.4v78.9c0,11.9.5,20.5.9,23.6"/>
    <path class="st0" d="M498.3,139.2c-2.5-7.3-3.4-14.8-2.8-23,4.2,3.2,12.5,7.4,21.1,7.4s7.6-1.3,7.6-3.7-3.5-4.2-9.4-6.7c-6.2-2.7-17.3-7.5-17.3-21.2s10.8-23,29.3-23,14.2,1.6,17.4,2.8c0,5.9-1.4,12.4-4,19.3-2.5-2-8-4.6-13.7-4.6s-6.6,1.3-6.6,3.5,3.5,4.2,9.4,6.7c6.4,2.8,17.5,7.5,17.5,21.3s-11.1,24.6-30.7,24.6-14.6-1.9-17.8-3.3"/>
    <path class="st0" d="M396.7,50.2c0,7.5-6.1,13.6-13.6,13.6s-13.6-6.1-13.6-13.6,6.1-13.6,13.6-13.6,13.6,6.1,13.6,13.6"/>
    <path class="st0" d="M494.4,31.9c-6.1,0-11.8,5.2-11.8,11.6,0,10.3,6.4,9.2,8.5,12.6,2.3,3.7-1.8,8-2.8,10.6-.5,1.3.6,1.9,1.3,1.6,7.5-3.1,18.4-11.3,18.4-22.7s-5.4-13.6-13.6-13.6"/>
  </g>
  <g>
    <path class="st0" d="M222.1,175.9v22.3c-2.6.3-5.1.4-7.5.1l-2-2.4c-2.5,1.8-5.9,3.1-10.1,3.1-10.4,0-18.6-7.8-18.6-19.7s9.9-22.2,23-22.2,10.9,1.8,13.1,3.2c0,2.1-.8,6.8-2.4,10.4-1.7-1.7-5.7-3.9-10.4-3.9-7,0-11.3,4.6-11.3,11.3s5.6,11.4,11.1,11.4,2.6-.2,3.7-.5v-5.8h-6c.3-2.5,1-5,1-7.4h16.5,0Z"/>
    <path class="st0" d="M252.4,188.1c.3,2,0,4.5-.6,7.2-1.8,1.9-6.5,3.8-11.3,3.8-8.4,0-14.7-5.4-14.7-14.8s7.2-16,16-16,11.5,5.1,11.5,11.5-.6,4.4-1.1,5.2l-16.2.2c.7,3.9,3.6,5.4,7.7,5.4s7.3-1.3,8.8-2.6ZM236,181.5l7-.4c0-.5.1-1.1.1-1.7,0-2.1-1-3.3-2.8-3.3s-3.9,2.3-4.4,5.4Z"/>
    <path class="st0" d="M278.7,196.4c-1.4,1.2-4.6,2.7-8.6,2.7s-11.2-2.3-11.2-11.1v-9.9h-4.1c.4-2.7,1.1-5.5,1.1-8.1l4.1-.8,1-6.3c2.6-1.2,5.9-1.7,9-2.5v9.6h9.6c0,2.7-.7,5.4-1.1,8.1h-8.5v6.9c0,3.7,2.3,4.8,4.1,4.8s4.4-1,5.6-1.7c.3,2.3-.2,5.1-1,8.3Z"/>
    <path class="st0" d="M312.5,183.2c-1.2,0-2.3,0-3.4-.2v15.2c-4.2.5-8.1.6-11.9.2v-39.4c2.6-.6,8.2-1.5,14.2-1.5,12.7,0,19.9,3.7,19.9,11.6s-2.9,9.3-8,11.4l12,17.7-14.7.8-8-15.8ZM308.7,175.6c.9.2,2,.3,3.2.3,4.6,0,7.5-1.9,7.5-5.2s-2.7-4.3-6.7-4.3-3,.2-3.9.3v8.9Z"/>
    <path class="st0" d="M362.5,188.1c.3,2,0,4.5-.6,7.2-1.8,1.9-6.5,3.8-11.3,3.8-8.4,0-14.7-5.4-14.7-14.8s7.2-16,16-16,11.5,5.1,11.5,11.5-.6,4.4-1.1,5.2l-16.2.2c.7,3.9,3.6,5.4,7.7,5.4s7.3-1.3,8.8-2.6ZM346.1,181.5l7-.4c0-.5.1-1.1.1-1.7,0-2.1-1-3.3-2.8-3.3s-3.9,2.3-4.4,5.4Z"/>
    <path class="st0" d="M385.3,199c-1.1-1.4-2-3.4-2.6-5.5-1.9,3.8-5.4,5.5-9,5.5s-8-2.8-8-7.9,5.6-10,14-10,2.1,0,2.7.1c-.1-2.7-1.5-4.7-5.4-4.7s-6.5,1.3-8.3,2.4c-.6-2-.9-4.3-1-6.9,2.2-1.6,7-3.8,12.9-3.8s12.4,3.6,12.4,12.5v5.4c0,4,.3,7.9,1.5,10.5-2.6,1.3-5.7,2.1-9.3,2.3ZM382.2,185.9c-.5,0-1.1,0-1.8,0-3.4,0-5.1,1.1-5.1,2.9s1,2.3,2.5,2.3,3.7-1.6,4.4-5.1Z"/>
    <path class="st0" d="M411.1,198c-3.9.6-7.6.7-11.2.4-.1-.9-.2-4.4-.2-10.3v-30.9c3.3-1.5,7.2-2.1,11-3.1v34c0,5,.2,8.6.4,9.9Z"/>
  </g>
</svg>